<svg width="44" height="44" viewBox="0 0 44 44" fill="none" xmlns="http://www.w3.org/2000/svg">
<path d="M1.30448 18.8957L14.03 6.14811L17.7508 9.89092C17.2224 11.7623 18.0811 13.8099 19.7983 14.8006V26.9977C18.4774 27.7463 17.5967 29.1774 17.5967 30.8066C17.5967 31.9744 18.0606 33.0944 18.8864 33.9202C19.7122 34.746 20.8322 35.2099 22 35.2099C23.1678 35.2099 24.2878 34.746 25.1136 33.9202C25.9394 33.0944 26.4033 31.9744 26.4033 30.8066C26.4033 29.1774 25.5226 27.7463 24.2017 26.9977V16.2977L28.7591 20.8992C28.605 21.2294 28.605 21.6037 28.605 22C28.605 23.1678 29.0689 24.2878 29.8947 25.1136C30.7204 25.9394 31.8404 26.4033 33.0083 26.4033C34.1761 26.4033 35.2961 25.9394 36.1219 25.1136C36.9476 24.2878 37.4116 23.1678 37.4116 22C37.4116 20.8322 36.9476 19.7122 36.1219 18.8864C35.2961 18.0606 34.1761 17.5967 33.0083 17.5967C32.612 17.5967 32.2377 17.5967 31.9074 17.7508L26.2492 12.0926C26.5226 11.0728 26.4166 9.98856 25.9509 9.04106C25.4853 8.09357 24.6916 7.34725 23.7173 6.9407C22.7706 6.58844 21.7798 6.50038 20.8992 6.74256L17.1564 3.02177L18.8957 1.30448C20.613 -0.434826 23.387 -0.434826 25.1043 1.30448L42.6955 18.8957C44.4348 20.613 44.4348 23.387 42.6955 25.1043L25.1043 42.6955C23.387 44.4348 20.613 44.4348 18.8957 42.6955L1.30448 25.1043C-0.434826 23.387 -0.434826 20.613 1.30448 18.8957Z" fill="#7e22ce"/>
</svg>
