<svg width="44" height="44" viewBox="0 0 44 44" fill="none" xmlns="http://www.w3.org/2000/svg">
<path d="M37.4901 37.491H30.9707V27.2809C30.9707 24.8462 30.9272 21.7121 27.5799 21.7121C24.1844 21.7121 23.6648 24.3647 23.6648 27.1037V37.4903H17.1454V16.4943H23.404V19.3636H23.4917C24.118 18.2927 25.0231 17.4116 26.1105 16.8144C27.1979 16.2171 28.427 15.926 29.6668 15.9721C36.2745 15.9721 37.4928 20.3185 37.4928 25.9729L37.4901 37.491ZM9.78931 13.6243C9.04105 13.6244 8.30953 13.4027 7.68729 12.9871C7.06505 12.5714 6.58007 11.9806 6.2936 11.2894C6.00712 10.5981 5.93204 9.83737 6.07789 9.10343C6.22374 8.36949 6.58396 7.69528 7.11297 7.16606C7.64198 6.63685 8.31604 6.27639 9.0499 6.13027C9.78376 5.98415 10.5445 6.05894 11.2358 6.34518C11.9272 6.63141 12.5181 7.11624 12.934 7.73834C13.3498 8.36045 13.5718 9.0919 13.5719 9.84019C13.572 10.337 13.4743 10.829 13.2842 11.2881C13.0942 11.7472 12.8156 12.1643 12.4643 12.5157C12.1131 12.8671 11.696 13.1458 11.2371 13.336C10.7781 13.5263 10.2861 13.6242 9.78931 13.6243ZM13.049 37.491H6.52281V16.4943H13.049V37.491ZM40.7403 0.00299779H3.24682C2.39582 -0.00660602 1.57578 0.32205 0.966973 0.916744C0.358164 1.51144 0.0103859 2.32352 0 3.17453V40.8248C0.0100305 41.6763 0.357604 42.4889 0.966393 43.0842C1.57518 43.6795 2.3954 44.0088 3.24682 43.9997H40.7403C41.5934 44.0104 42.4159 43.6821 43.0271 43.0868C43.6383 42.4915 43.9882 41.6779 44 40.8248V3.17182C43.9878 2.31911 43.6377 1.50611 43.0265 0.911431C42.4153 0.316751 41.593 -0.010966 40.7403 0.000280173" fill="#7e22ce"/>
</svg>
