<svg width="44" height="44" viewBox="0 0 61 61" fill="#7e22ce" xmlns="http://www.w3.org/2000/svg">
<path d="M1.28125 30.375H55.0938C55.4336 30.375 55.7595 30.2417 55.9997 30.0043C56.24 29.767 56.375 29.445 56.375 29.1094V20.25C56.3753 19.9175 56.3092 19.5882 56.1806 19.2809C56.052 18.9736 55.8634 18.6944 55.6255 18.4591L37.688 0.740391C37.4498 0.505404 37.1671 0.319069 36.8561 0.192031C36.545 0.0649919 36.2116 -0.000260683 35.875 7.82659e-07H5.125C3.76577 7.82659e-07 2.4622 0.53337 1.50108 1.48277C0.539954 2.43218 0 3.71984 0 5.0625V29.1094C0 29.445 0.134989 29.767 0.37527 30.0043C0.615551 30.2417 0.941441 30.375 1.28125 30.375ZM35.875 6.32813L49.9688 20.25H35.875V6.32813ZM60.2188 58.3864C60.1614 59.0371 59.8572 59.6422 59.3671 60.0806C58.877 60.5189 58.2373 60.758 57.5762 60.75H48.6875C48.0079 60.75 47.3561 60.4833 46.8755 60.0086C46.395 59.5339 46.125 58.8901 46.125 58.2188V40.5854C46.1169 39.9324 46.3589 39.3005 46.8027 38.8163C47.2464 38.3322 47.8591 38.0317 48.5177 37.9751C48.8683 37.9521 49.2198 38.0005 49.5506 38.1174C49.8813 38.2343 50.1842 38.4171 50.4405 38.6545C50.6967 38.8918 50.9008 39.1787 51.04 39.4973C51.1793 39.8159 51.2508 40.1593 51.25 40.5063V55.6938H57.6562C58.007 55.6931 58.3541 55.7635 58.6761 55.9007C58.9982 56.0379 59.2883 56.2389 59.5285 56.4913C59.7687 56.7437 59.9539 57.0422 60.0727 57.3682C60.1914 57.6941 60.2411 58.0407 60.2188 58.3864ZM16.5986 54.52C16.4987 55.4881 16.1829 56.4223 15.674 57.2556C15.165 58.0888 14.4754 58.8002 13.6549 59.3388C11.9925 60.4336 9.92969 60.75 8.05266 60.75C6.41562 60.7416 4.78622 60.529 3.20312 60.1172C2.55636 59.9301 2.01024 59.4988 1.68308 58.9168C1.35591 58.3348 1.27403 57.6489 1.45516 57.0077C1.6363 56.3664 2.06587 55.8215 2.65084 55.4909C3.2358 55.1603 3.92906 55.0707 4.58047 55.2414C5.98344 55.6211 9.36914 56.0957 10.8426 55.1275C11.1277 54.9408 11.4287 54.6465 11.528 53.884C11.6402 53.0392 11.3006 52.5867 7.43445 51.4825C4.43953 50.6282 -0.57336 49.1948 0.0672653 44.1703C0.166972 43.2212 0.476933 42.3054 0.975148 41.4879C1.47336 40.6704 2.14762 39.9712 2.95008 39.44C6.74258 36.9088 12.7901 38.3927 13.4659 38.5668C13.7915 38.6515 14.097 38.7988 14.365 39.0002C14.6329 39.2016 14.8581 39.4531 15.0276 39.7405C15.1972 40.0278 15.3077 40.3453 15.3531 40.6749C15.3984 41.0045 15.3775 41.3396 15.2917 41.6612C15.2059 41.9828 15.0568 42.2846 14.8529 42.5493C14.6491 42.814 14.3944 43.0364 14.1035 43.2039C13.8126 43.3713 13.4912 43.4806 13.1576 43.5253C12.8239 43.5701 12.4846 43.5495 12.1591 43.4647C10.7209 43.0945 7.28391 42.6547 5.81047 43.6419C5.61733 43.7706 5.45832 43.9433 5.34684 44.1454C5.23535 44.3474 5.17465 44.573 5.16984 44.8031C5.13141 45.0879 5.125 45.1448 5.52859 45.4043C6.26852 45.8757 7.59141 46.2523 8.87586 46.6193C12.0117 47.5147 17.3161 49.043 16.5986 54.52ZM39.3408 55.542C40.4336 53.6607 41.0059 51.5284 41 49.3594C41 43.0787 36.4035 37.9688 30.75 37.9688C25.0965 37.9688 20.5 43.0787 20.5 49.3594C20.5 55.64 25.0965 60.75 30.75 60.75C32.56 60.7433 34.3292 60.2179 35.843 59.2376L36.6245 60.0096C36.8737 60.2556 37.1714 60.4481 37.4993 60.5753C37.8271 60.7025 38.178 60.7615 38.53 60.7487C38.8819 60.736 39.2275 60.6517 39.545 60.5011C39.8625 60.3505 40.1452 60.1369 40.3754 59.8736C40.7958 59.3717 41.0092 58.7317 40.973 58.0813C40.9368 57.4309 40.6536 56.8179 40.18 56.3646L39.3408 55.542ZM30.75 55.6875C27.9248 55.6875 25.625 52.8398 25.625 49.3594C25.625 45.8789 27.9248 43.0312 30.75 43.0312C33.5752 43.0312 35.875 45.8789 35.875 49.3594C35.8755 50.1661 35.7479 50.9679 35.497 51.7356L35.1991 51.4413C34.7262 50.9599 34.0832 50.6777 33.4046 50.6535C32.7259 50.6293 32.064 50.8651 31.5572 51.3116C31.3069 51.5437 31.1064 51.8232 30.9675 52.1334C30.8287 52.4436 30.7544 52.7782 30.749 53.1173C30.7436 53.4564 30.8073 53.7931 30.9362 54.1075C31.0652 54.4218 31.2567 54.7073 31.4995 54.9471L32.0377 55.4755C31.6224 55.6126 31.1878 55.6841 30.75 55.6875Z" fill="#7e22ce"/>
</svg>
