<svg width="44" height="44" viewBox="0 0 44 44" fill="none" xmlns="http://www.w3.org/2000/svg">
<path fill-rule="evenodd" clip-rule="evenodd" d="M37.589 6.39384C33.4533 2.27276 27.953 0.00209086 22.0924 0C10.0162 0 0.188034 9.77999 0.183832 21.8014C0.181731 25.6443 1.19123 29.3953 3.10834 32.701L0 44L11.614 40.9682C14.8137 42.7058 18.4168 43.6205 22.083 43.6216H22.0924C34.1665 43.6216 43.9958 33.8405 44 21.8191C44.0021 15.993 41.7257 10.516 37.589 6.39489V6.39384ZM22.0924 39.9396H22.0851C18.8181 39.9386 15.6132 39.0645 12.8168 37.4138L12.1518 37.0208L5.25971 38.8199L7.09908 32.1323L6.66628 31.4465C4.84372 28.5611 3.88043 25.2261 3.88254 21.8025C3.88674 11.8113 12.0552 3.682 22.0999 3.682C26.9634 3.68409 31.5352 5.5711 34.9733 8.99696C38.4115 12.4218 40.3034 16.9757 40.3013 21.8171C40.297 31.8093 32.1287 39.9386 22.0924 39.9386V39.9396ZM32.0803 26.3678C31.533 26.095 28.8418 24.7777 28.3395 24.5958C27.8375 24.4139 27.473 24.323 27.1084 24.8687C26.7439 25.4144 25.6945 26.6417 25.3752 27.0045C25.0558 27.3683 24.7364 27.4133 24.1891 27.1403C23.6419 26.8675 21.8781 26.2925 19.7867 24.4368C18.1595 22.9921 17.0606 21.2086 16.7414 20.6629C16.422 20.1172 16.7078 19.8224 16.9808 19.5516C17.2266 19.307 17.5281 18.915 17.8023 18.5971C18.0765 18.2793 18.1669 18.0515 18.3496 17.6886C18.5324 17.3248 18.441 17.0071 18.3045 16.7341C18.1678 16.4613 17.0733 13.7797 16.6164 12.6894C16.172 11.6273 15.7203 11.7715 15.3852 11.7538C15.0658 11.7381 14.7014 11.7349 14.3358 11.7349C13.9702 11.7349 13.3777 11.8709 12.8756 12.4166C12.3735 12.9622 10.9596 14.2805 10.9596 16.961C10.9596 19.6415 12.9208 22.2332 13.195 22.597C13.4691 22.9608 17.0554 28.4629 22.5462 30.8235C23.852 31.3848 24.872 31.7204 25.6672 31.9713C26.9782 32.3863 28.1715 32.3278 29.1148 32.1877C30.1664 32.0309 32.3534 30.8694 32.8093 29.5971C33.2652 28.3248 33.2652 27.2334 33.1287 27.0065C32.9922 26.7797 32.6266 26.6427 32.0793 26.3699L32.0803 26.3678Z" fill="#7e22ce"/>
</svg>
